<svg aria-hidden="true" style="position: absolute; width: 0; height: 0; overflow: hidden;" version="1.1" xmlns="http://www.w3.org/2000/svg" xmlns:xlink="http://www.w3.org/1999/xlink">
<defs>
<symbol id="logo-b" viewBox="0 0 32 32">
<path d="M16 32c-8.823 0-16-7.177-16-16s7.177-16 16-16c8.823 0 16 7.177 16 16s-7.177 16-16 16zM16 2.31c-7.548 0-13.69 6.141-13.69 13.69s6.141 13.69 13.69 13.69c7.548 0 13.69-6.141 13.69-13.69s-6.141-13.69-13.69-13.69z"></path>
<path d="M12.394 10.667l3.191 10.417h0.118l3.191-10.417h3.86l-4.815 14.222h-4.592l-4.815-14.222h3.86z"></path>
</symbol>
<symbol id="logo-l" viewBox="0 0 32 32">
<path d="M16 32c-8.822 0-16-7.178-16-16s7.178-16 16-16c8.822 0 16 7.178 16 16s-7.178 16-16 16zM16 2.31c-7.548 0-13.69 6.141-13.69 13.69s6.141 13.69 13.69 13.69c7.548 0 13.69-6.141 13.69-13.69s-6.141-13.69-13.69-13.69z"></path>
<path d="M12.394 10.667l3.191 10.417h0.118l3.191-10.417h3.86l-4.815 14.222h-4.592l-4.815-14.222h3.86z"></path>
</symbol>
</defs>
</svg>
